<?xml version="1.0" standalone="no"?>
<!DOCTYPE svg PUBLIC "-//W3C//DTD SVG 20010904//EN"
 "http://www.w3.org/TR/2001/REC-SVG-20010904/DTD/svg10.dtd">
<svg version="1.0" xmlns="http://www.w3.org/2000/svg"
 width="55.000000pt" height="60.000000pt" viewBox="0 0 55.000000 60.000000"
 preserveAspectRatio="xMidYMid meet">

<g transform="translate(0.000000,60.000000) scale(0.100000,-0.100000)"
fill="#000000" stroke="none">
<path d="M210 568 c-36 -17 -96 -41 -135 -54 l-70 -22 1 -109 c1 -128 22 -196
84 -266 48 -55 126 -106 172 -114 71 -11 204 92 255 196 25 51 28 66 28 175
l0 118 -80 28 c-44 15 -103 39 -132 53 -29 15 -54 27 -55 26 -2 0 -32 -15 -68
-31z m113 -20 c23 -11 77 -33 121 -48 l79 -27 -2 -97 c-1 -53 -8 -114 -16
-135 -30 -85 -93 -154 -183 -200 l-43 -22 -44 20 c-63 28 -140 104 -172 170
-25 50 -28 67 -28 160 l0 103 75 27 c41 14 93 36 115 48 50 27 48 27 98 1z"/>
<path d="M170 485 c0 -9 5 -15 11 -13 6 2 11 8 11 13 0 5 -5 11 -11 13 -6 2
-11 -4 -11 -13z"/>
<path d="M93 468 c-30 -10 -33 -15 -33 -50 0 -24 4 -37 10 -33 6 3 10 16 10
29 0 18 9 25 40 35 22 6 40 16 40 21 0 12 -25 11 -67 -2z"/>
<path d="M312 351 l-78 -68 -37 30 c-33 26 -41 28 -63 19 -40 -19 -31 -51 30
-104 30 -27 62 -48 70 -48 17 0 201 163 210 186 6 15 -26 54 -44 54 -5 0 -45
-31 -88 -69z m102 30 c7 -11 -163 -171 -181 -171 -18 0 -93 69 -93 86 0 23 24
16 55 -16 16 -17 33 -30 39 -30 5 0 42 31 82 70 71 69 87 79 98 61z"/>
<path d="M382 147 c-42 -43 -50 -57 -32 -57 16 0 90 71 90 86 0 23 -14 16 -58
-29z"/>
<path d="M300 80 c0 -5 7 -10 15 -10 8 0 15 5 15 10 0 6 -7 10 -15 10 -8 0
-15 -4 -15 -10z"/>
</g>
</svg>
